<svg width="1440" height="1024" viewBox="0 0 1440 1024" fill="none" xmlns="http://www.w3.org/2000/svg">
<rect width="1440" height="1024" fill="white"/>
<g filter="url(#filter0_d)">
<path d="M672.44 550.008C671.16 554.872 669.784 559.704 668.312 564.504C666.904 569.304 665.4 574.136 663.8 579H652.664C651.512 576.312 650.264 573.112 648.92 569.4C647.576 565.688 646.168 561.656 644.696 557.304C643.288 552.888 641.816 548.248 640.28 543.384C638.808 538.456 637.368 533.496 635.96 528.504H651.032C651.544 530.808 652.088 533.336 652.664 536.088C653.304 538.776 653.944 541.56 654.584 544.44C655.288 547.32 655.992 550.232 656.696 553.176C657.464 556.056 658.232 558.84 659 561.528C659.832 558.712 660.632 555.832 661.4 552.888C662.232 549.944 663 547.064 663.704 544.248C664.472 541.368 665.176 538.616 665.816 535.992C666.52 533.304 667.128 530.808 667.64 528.504H678.008C678.52 530.808 679.096 533.304 679.736 535.992C680.376 538.616 681.048 541.368 681.752 544.248C682.456 547.064 683.192 549.944 683.96 552.888C684.728 555.832 685.528 558.712 686.36 561.528C687.128 558.84 687.896 556.056 688.664 553.176C689.432 550.232 690.136 547.32 690.776 544.44C691.48 541.56 692.12 538.776 692.696 536.088C693.336 533.336 693.912 530.808 694.424 528.504H709.304C707.896 533.496 706.424 538.456 704.888 543.384C703.416 548.248 701.944 552.888 700.472 557.304C699.064 561.656 697.656 565.688 696.248 569.4C694.904 573.112 693.656 576.312 692.504 579H681.368C679.768 574.136 678.2 569.304 676.664 564.504C675.128 559.704 673.72 554.872 672.44 550.008ZM730.537 545.688C730.537 548.952 730.921 551.896 731.689 554.52C732.521 557.144 733.673 559.416 735.145 561.336C736.681 563.192 738.537 564.632 740.713 565.656C742.889 566.68 745.385 567.192 748.201 567.192C750.953 567.192 753.417 566.68 755.593 565.656C757.833 564.632 759.689 563.192 761.161 561.336C762.697 559.416 763.849 557.144 764.617 554.52C765.449 551.896 765.865 548.952 765.865 545.688C765.865 542.424 765.449 539.48 764.617 536.856C763.849 534.168 762.697 531.896 761.161 530.04C759.689 528.12 757.833 526.648 755.593 525.624C753.417 524.6 750.953 524.088 748.201 524.088C745.385 524.088 742.889 524.632 740.713 525.72C738.537 526.744 736.681 528.216 735.145 530.136C733.673 531.992 732.521 534.264 731.689 536.952C730.921 539.576 730.537 542.488 730.537 545.688ZM781.321 545.688C781.321 551.384 780.457 556.408 778.729 560.76C777.065 565.048 774.761 568.664 771.817 571.608C768.873 574.488 765.353 576.664 761.257 578.136C757.225 579.608 752.873 580.344 748.201 580.344C743.657 580.344 739.369 579.608 735.337 578.136C731.305 576.664 727.785 574.488 724.777 571.608C721.769 568.664 719.401 565.048 717.673 560.76C715.945 556.408 715.081 551.384 715.081 545.688C715.081 539.992 715.977 535 717.769 530.712C719.561 526.36 721.961 522.712 724.969 519.768C728.041 516.824 731.561 514.616 735.529 513.144C739.561 511.672 743.785 510.936 748.201 510.936C752.745 510.936 757.033 511.672 761.065 513.144C765.097 514.616 768.617 516.824 771.625 519.768C774.633 522.712 777.001 526.36 778.729 530.712C780.457 535 781.321 539.992 781.321 545.688ZM806.381 545.688C806.381 548.952 806.765 551.896 807.533 554.52C808.365 557.144 809.517 559.416 810.989 561.336C812.525 563.192 814.381 564.632 816.557 565.656C818.733 566.68 821.229 567.192 824.045 567.192C826.797 567.192 829.261 566.68 831.437 565.656C833.677 564.632 835.533 563.192 837.005 561.336C838.541 559.416 839.693 557.144 840.461 554.52C841.293 551.896 841.709 548.952 841.709 545.688C841.709 542.424 841.293 539.48 840.461 536.856C839.693 534.168 838.541 531.896 837.005 530.04C835.533 528.12 833.677 526.648 831.437 525.624C829.261 524.6 826.797 524.088 824.045 524.088C821.229 524.088 818.733 524.632 816.557 525.72C814.381 526.744 812.525 528.216 810.989 530.136C809.517 531.992 808.365 534.264 807.533 536.952C806.765 539.576 806.381 542.488 806.381 545.688ZM857.165 545.688C857.165 551.384 856.301 556.408 854.573 560.76C852.909 565.048 850.605 568.664 847.661 571.608C844.717 574.488 841.197 576.664 837.101 578.136C833.069 579.608 828.717 580.344 824.045 580.344C819.501 580.344 815.213 579.608 811.181 578.136C807.149 576.664 803.629 574.488 800.621 571.608C797.613 568.664 795.245 565.048 793.517 560.76C791.789 556.408 790.925 551.384 790.925 545.688C790.925 539.992 791.821 535 793.613 530.712C795.405 526.36 797.805 522.712 800.813 519.768C803.885 516.824 807.405 514.616 811.373 513.144C815.405 511.672 819.629 510.936 824.045 510.936C828.589 510.936 832.877 511.672 836.909 513.144C840.941 514.616 844.461 516.824 847.469 519.768C850.477 522.712 852.845 526.36 854.573 530.712C856.301 535 857.165 539.992 857.165 545.688ZM901.041 554.136C901.041 549.72 900.049 546.2 898.065 543.576C896.081 540.888 893.137 539.544 889.233 539.544C887.953 539.544 886.769 539.608 885.681 539.736C884.593 539.8 883.697 539.896 882.993 540.024V565.848C883.889 566.424 885.041 566.904 886.449 567.288C887.921 567.672 889.393 567.864 890.865 567.864C897.649 567.864 901.041 563.288 901.041 554.136ZM915.633 553.752C915.633 557.656 915.153 561.208 914.193 564.408C913.233 567.608 911.825 570.36 909.969 572.664C908.113 574.968 905.809 576.76 903.057 578.04C900.305 579.32 897.137 579.96 893.553 579.96C891.569 579.96 889.713 579.768 887.985 579.384C886.257 579 884.593 578.456 882.993 577.752V596.76H868.689V530.232C869.969 529.848 871.441 529.496 873.105 529.176C874.769 528.792 876.497 528.472 878.289 528.216C880.145 527.96 882.001 527.768 883.857 527.64C885.777 527.448 887.601 527.352 889.329 527.352C893.489 527.352 897.201 527.992 900.465 529.272C903.729 530.488 906.481 532.248 908.721 534.552C910.961 536.792 912.657 539.544 913.809 542.808C915.025 546.072 915.633 549.72 915.633 553.752ZM924.226 554.136C924.226 549.656 924.898 545.752 926.242 542.424C927.65 539.032 929.474 536.216 931.714 533.976C933.954 531.736 936.514 530.04 939.394 528.888C942.338 527.736 945.346 527.16 948.418 527.16C955.586 527.16 961.25 529.368 965.41 533.784C969.57 538.136 971.65 544.568 971.65 553.08C971.65 553.912 971.618 554.84 971.554 555.864C971.49 556.824 971.426 557.688 971.362 558.456H938.914C939.234 561.4 940.61 563.736 943.042 565.464C945.474 567.192 948.738 568.056 952.834 568.056C955.458 568.056 958.018 567.832 960.514 567.384C963.074 566.872 965.154 566.264 966.754 565.56L968.674 577.176C967.906 577.56 966.882 577.944 965.602 578.328C964.322 578.712 962.882 579.032 961.282 579.288C959.746 579.608 958.082 579.864 956.29 580.056C954.498 580.248 952.706 580.344 950.914 580.344C946.37 580.344 942.402 579.672 939.01 578.328C935.682 576.984 932.898 575.16 930.658 572.856C928.482 570.488 926.85 567.704 925.762 564.504C924.738 561.304 924.226 557.848 924.226 554.136ZM957.826 548.664C957.762 547.448 957.538 546.264 957.154 545.112C956.834 543.96 956.29 542.936 955.522 542.04C954.818 541.144 953.89 540.408 952.738 539.832C951.65 539.256 950.274 538.968 948.61 538.968C947.01 538.968 945.634 539.256 944.482 539.832C943.33 540.344 942.37 541.048 941.602 541.944C940.834 542.84 940.226 543.896 939.778 545.112C939.394 546.264 939.106 547.448 938.914 548.664H957.826ZM1013.12 541.176C1011.84 540.856 1010.34 540.536 1008.61 540.216C1006.88 539.832 1005.02 539.64 1003.04 539.64C1002.14 539.64 1001.06 539.736 999.777 539.928C998.561 540.056 997.633 540.216 996.993 540.408V579H982.689V531.192C985.249 530.296 988.257 529.464 991.713 528.696C995.233 527.864 999.137 527.448 1003.42 527.448C1004.19 527.448 1005.12 527.512 1006.21 527.64C1007.3 527.704 1008.38 527.832 1009.47 528.024C1010.56 528.152 1011.65 528.344 1012.74 528.6C1013.82 528.792 1014.75 529.048 1015.52 529.368L1013.12 541.176ZM1055.54 553.368C1055.54 544.152 1052.15 539.544 1045.36 539.544C1043.89 539.544 1042.42 539.736 1040.95 540.12C1039.54 540.504 1038.39 540.984 1037.49 541.56V567.576C1038.2 567.704 1039.09 567.832 1040.18 567.96C1041.27 568.024 1042.45 568.056 1043.73 568.056C1047.64 568.056 1050.58 566.712 1052.56 564.024C1054.55 561.336 1055.54 557.784 1055.54 553.368ZM1070.13 553.752C1070.13 557.784 1069.52 561.432 1068.31 564.696C1067.16 567.96 1065.46 570.744 1063.22 573.048C1060.98 575.352 1058.23 577.144 1054.96 578.424C1051.7 579.64 1047.99 580.248 1043.83 580.248C1042.1 580.248 1040.28 580.152 1038.36 579.96C1036.5 579.832 1034.64 579.64 1032.79 579.384C1031 579.128 1029.27 578.84 1027.6 578.52C1025.94 578.136 1024.47 577.752 1023.19 577.368V506.808L1037.49 504.504V529.656C1039.09 528.952 1040.76 528.408 1042.48 528.024C1044.21 527.64 1046.07 527.448 1048.05 527.448C1051.64 527.448 1054.8 528.088 1057.56 529.368C1060.31 530.584 1062.61 532.344 1064.47 534.648C1066.32 536.952 1067.73 539.736 1068.69 543C1069.65 546.2 1070.13 549.784 1070.13 553.752Z" fill="url(#paint0_linear)"/>
</g>
<g filter="url(#filter1_d)">
<path d="M616.765 402.589C614.307 402.87 609.607 403.669 606.326 404.367C603.045 405.066 598.35 406.313 595.887 407.142C593.429 407.965 590.404 409.141 589.176 409.761C587.947 410.376 586.825 411.08 586.688 411.325C586.557 411.569 586.891 413.592 587.434 415.812C588.221 418.998 588.621 419.768 589.325 419.452C589.82 419.225 591.961 418.563 594.097 417.978C596.233 417.393 599.716 416.904 601.852 416.886C603.987 416.874 607.209 417.214 609.01 417.638C611.253 418.169 612.858 418.234 614.081 417.852C615.065 417.542 622.313 417.256 630.187 417.22C641.461 417.166 646.025 417.393 651.662 418.27C655.599 418.879 662.31 420.257 666.575 421.331C670.84 422.405 677.014 424.273 680.295 425.484C683.576 426.695 688.778 429.076 691.856 430.771C694.928 432.465 699.492 435.484 701.997 437.489C704.496 439.488 708.052 442.841 709.901 444.948C711.744 447.048 714.572 450.783 716.176 453.242C717.787 455.706 720.066 459.996 721.241 462.788C722.422 465.581 723.86 469.608 724.45 471.739C725.035 473.869 725.757 475.886 726.061 476.214C726.401 476.584 726.49 476.25 726.299 475.319C726.126 474.501 725.273 470.873 724.397 467.264C723.526 463.654 721.772 458.015 720.501 454.733C719.237 451.451 716.97 446.618 715.472 443.993C713.975 441.368 711.315 437.34 709.561 435.043C707.801 432.746 704.329 428.921 701.83 426.54C699.336 424.159 694.946 420.681 692.077 418.813C689.207 416.94 684.644 414.392 681.936 413.145C679.227 411.898 673.793 409.803 669.856 408.491C665.919 407.178 659.411 405.447 655.39 404.642C651.37 403.842 645.464 402.9 642.267 402.554C639.069 402.208 633.026 401.963 628.845 402.005C624.663 402.046 619.229 402.309 616.765 402.589Z" fill="#FFD266"/>
<path d="M579.679 416.659C576.291 419.189 570.128 424.631 565.989 428.748C561.843 432.865 556.772 438.515 554.708 441.308C552.65 444.1 549.751 448.928 548.278 452.048C546.798 455.169 544.86 460.67 543.959 464.28C543.058 467.89 542.026 473.594 541.668 476.96C541.304 480.325 541.006 485.963 541 489.49C541 493.016 541.28 498.726 541.632 502.169C541.978 505.612 542.67 510.451 543.177 512.909C543.678 515.374 544.86 519.264 545.808 521.561C546.751 523.859 549.077 528.22 550.98 531.251C552.877 534.283 556.038 538.817 558.007 541.323C559.976 543.829 564.271 548.46 567.551 551.622C570.838 554.779 576.207 559.391 579.482 561.867C582.763 564.343 587.464 567.547 589.921 568.991C592.385 570.435 596.543 572.369 599.167 573.282C601.792 574.2 605.079 574.952 606.475 574.958C608.933 574.964 608.998 574.916 608.646 573.323C608.443 572.422 607.626 568.598 606.833 564.821C605.872 560.274 605.264 554.934 605.019 549.009C604.787 543.221 604.924 537.952 605.407 534.092C605.813 530.81 606.815 525.84 607.626 523.053C608.437 520.267 610.209 515.833 611.569 513.208C613.371 509.729 615.345 507.134 618.835 503.655C621.77 500.719 625.128 498.064 627.502 496.793L631.38 494.711C619.36 494.162 614.391 493.649 612.589 493.219C610.788 492.795 608.235 491.96 606.922 491.363C605.61 490.773 604.113 489.943 603.6 489.52C603.087 489.09 601.882 487.348 600.915 485.635C599.209 482.604 599.072 482.509 595.141 481.608C592.928 481.101 589.569 479.919 587.684 478.982C585.799 478.046 582.644 475.802 580.675 474.006C578.707 472.21 576.159 469.286 575.014 467.508C573.875 465.73 572.33 462.603 571.584 460.551C570.844 458.498 570.063 454.876 569.854 452.496C569.639 449.99 569.776 446.41 570.188 443.993C570.594 441.618 571.894 437.758 573.201 435.043C574.769 431.791 576.613 429.154 578.981 426.773C580.896 424.852 583.67 422.584 585.149 421.743C586.628 420.901 587.971 420.114 588.132 420.001C588.293 419.881 588.03 418.151 587.535 416.158C587.04 414.159 586.461 412.417 586.241 412.285C586.02 412.154 583.067 414.123 579.679 416.659Z" fill="#1E2226"/>
<path d="M594.395 417.823C592.427 418.3 589.074 419.613 586.939 420.728C584.791 421.856 581.373 424.44 579.279 426.516C576.565 429.207 574.847 431.618 573.195 435.043C571.894 437.752 570.594 441.624 570.188 443.993C569.776 446.41 569.639 449.99 569.854 452.496C570.063 454.876 570.844 458.498 571.584 460.551C572.33 462.603 573.875 465.73 575.014 467.508C576.159 469.286 578.707 472.21 580.675 474.006C582.644 475.802 585.799 478.046 587.684 478.982C589.569 479.919 592.791 481.089 594.843 481.578C596.895 482.061 600.182 482.461 602.15 482.461C604.119 482.461 607.471 482.043 609.607 481.536C611.742 481.029 615.226 479.704 617.362 478.588C619.515 477.461 622.921 474.895 625.021 472.807C627.735 470.116 629.453 467.705 631.105 464.28C632.406 461.571 633.706 457.699 634.112 455.33C634.524 452.913 634.661 449.333 634.446 446.827C634.237 444.446 633.456 440.825 632.716 438.772C631.97 436.719 630.425 433.593 629.286 431.815C628.141 430.037 625.594 427.113 623.625 425.317C621.657 423.521 618.501 421.277 616.616 420.341C614.731 419.404 611.51 418.234 609.458 417.745C607.405 417.262 603.987 416.88 601.852 416.904C599.716 416.928 596.364 417.339 594.395 417.823Z" fill="white"/>
<path d="M619.748 417.202C618.602 417.333 616.455 417.608 614.975 417.805L612.291 418.163C618.304 421.176 621.657 423.521 623.625 425.317C625.594 427.113 628.141 430.037 629.286 431.815C630.425 433.593 631.988 436.791 632.758 438.921C633.557 441.147 634.279 444.828 634.464 447.573C634.655 450.491 634.464 453.88 633.975 456.285L633.17 460.217C648.429 460.855 656.881 461.44 661.803 461.929C666.724 462.418 674.109 463.355 678.207 464.012C682.311 464.674 688.617 465.981 692.226 466.917C695.835 467.86 700.935 469.459 703.56 470.468C706.185 471.482 710.062 473.326 712.174 474.561C714.285 475.796 717.733 478.421 719.833 480.39C722.529 482.914 724.301 485.253 725.84 488.314C727.039 490.707 728.155 492.658 728.316 492.652C728.477 492.646 728.405 491.089 728.149 489.197C727.886 487.306 727.546 484.824 727.391 483.672C727.23 482.521 726.926 480.647 726.711 479.495C726.496 478.344 726.276 477.27 726.222 477.109C726.168 476.948 725.959 476.405 725.757 475.915C725.554 475.426 724.933 473.409 724.379 471.44C723.824 469.471 722.41 465.581 721.235 462.788C720.06 459.996 717.787 455.706 716.176 453.242C714.572 450.783 711.744 447.048 709.901 444.948C708.052 442.841 704.496 439.488 701.997 437.489C699.491 435.484 694.928 432.465 691.856 430.771C688.778 429.076 683.576 426.695 680.295 425.484C677.014 424.273 670.703 422.381 666.277 421.277C661.851 420.18 655.402 418.849 651.96 418.324C648.375 417.775 640.596 417.28 633.766 417.16C627.204 417.047 620.893 417.065 619.748 417.202Z" fill="#FFBB38"/>
<path d="M599.907 430.95C599.657 431.23 600.193 432.221 601.1 433.145C602.49 434.559 602.747 435.329 602.747 438.056C602.747 440.908 602.52 441.511 600.796 443.235C599.06 444.972 598.481 445.186 595.529 445.186C592.564 445.186 592.039 444.989 590.619 443.343C589.742 442.334 588.716 440.992 588.334 440.359C587.714 439.327 587.517 439.5 586.259 442.203C585.173 444.536 584.869 446.225 584.857 449.972C584.851 454.131 585.095 455.264 586.724 458.624C587.863 460.98 589.617 463.373 591.198 464.751C592.629 465.993 595.278 467.562 597.08 468.242C599.525 469.155 601.273 469.4 603.94 469.197C605.908 469.048 608.724 468.403 610.203 467.759C611.683 467.12 613.961 465.641 615.274 464.471C616.586 463.302 618.465 460.766 619.449 458.838C621.054 455.688 621.233 454.781 621.209 449.96C621.179 445.538 620.923 444.065 619.73 441.606C618.936 439.965 617.135 437.483 615.733 436.087C614.331 434.691 611.909 432.972 610.352 432.268C608.795 431.564 605.908 430.866 603.94 430.717C601.971 430.568 600.158 430.669 599.907 430.95Z" fill="#3F3F3F"/>
<path d="M630.98 464.638C629.513 467.586 627.532 470.301 625.015 472.807C622.903 474.901 619.527 477.455 617.362 478.588C615.226 479.704 611.742 481.029 609.607 481.536C607.471 482.043 604.321 482.467 602.597 482.473C600.874 482.473 599.466 482.616 599.466 482.777C599.466 482.938 600.205 484.394 601.106 486.005C602.007 487.616 603.552 489.472 604.536 490.128C605.52 490.785 607.602 491.751 609.159 492.27C610.716 492.789 613.806 493.476 616.019 493.786C618.232 494.102 622.867 494.353 626.309 494.347C629.751 494.341 637.136 494.108 642.714 493.834C648.292 493.559 661.779 493.309 672.689 493.279C683.6 493.243 697.153 493.505 702.814 493.852C708.475 494.198 715.926 494.896 719.368 495.403C722.81 495.91 726.168 496.364 726.824 496.411C727.677 496.477 728.071 496.077 728.202 495.009C728.31 494.15 727.385 491.489 726.013 488.744C724.265 485.23 722.637 483.028 719.827 480.39C717.727 478.421 714.285 475.796 712.174 474.561C710.062 473.326 706.185 471.482 703.56 470.468C700.935 469.459 695.835 467.86 692.226 466.917C688.617 465.981 682.311 464.674 678.207 464.012C674.109 463.355 666.724 462.418 661.803 461.929C656.882 461.44 648.429 460.855 643.012 460.628L633.17 460.217L630.98 464.638Z" fill="#FF9B19"/>
</g>
<defs>
<filter id="filter0_d" x="625.96" y="494.504" width="454.173" height="112.256" filterUnits="userSpaceOnUse" color-interpolation-filters="sRGB">
<feFlood flood-opacity="0" result="BackgroundImageFix"/>
<feColorMatrix in="SourceAlpha" type="matrix" values="0 0 0 0 0 0 0 0 0 0 0 0 0 0 0 0 0 0 127 0"/>
<feOffset/>
<feGaussianBlur stdDeviation="5"/>
<feColorMatrix type="matrix" values="0 0 0 0 0 0 0 0 0 0 0 0 0 0 0 0 0 0 0.25 0"/>
<feBlend mode="normal" in2="BackgroundImageFix" result="effect1_dropShadow"/>
<feBlend mode="normal" in="SourceGraphic" in2="effect1_dropShadow" result="shape"/>
</filter>
<filter id="filter1_d" x="196" y="173" width="879" height="631" filterUnits="userSpaceOnUse" color-interpolation-filters="sRGB">
<feFlood flood-opacity="0" result="BackgroundImageFix"/>
<feColorMatrix in="SourceAlpha" type="matrix" values="0 0 0 0 0 0 0 0 0 0 0 0 0 0 0 0 0 0 127 0"/>
<feOffset/>
<feGaussianBlur stdDeviation="5"/>
<feColorMatrix type="matrix" values="0 0 0 0 0 0 0 0 0 0 0 0 0 0 0 0 0 0 0.3 0"/>
<feBlend mode="normal" in2="BackgroundImageFix" result="effect1_dropShadow"/>
<feBlend mode="normal" in="SourceGraphic" in2="effect1_dropShadow" result="shape"/>
</filter>
<linearGradient id="paint0_linear" x1="635" y1="488" x2="1075" y2="579" gradientUnits="userSpaceOnUse">
<stop stop-color="#FAB428"/>
<stop offset="1" stop-color="#FFDD8A"/>
</linearGradient>
</defs>
</svg>
